<svg width="2000" height="500" viewBox="0 0 2000 500" fill="none" xmlns="http://www.w3.org/2000/svg">
    <g clip-path="url(#clip0)">
        <rect width="2000" height="500" rx="20" fill="#0088CC"/>
        <path d="M1057.25 250C1049.37 250 1042.98 256.397 1042.98 264.286C1042.98 272.174 1049.37 278.571 1057.25 278.571C1065.13 278.571 1071.52 272.174 1071.52 264.286C1071.52 256.397 1065.13 250 1057.25 250ZM1092.93 178.571H1085.8V171.429C1085.8 159.594 1076.21 150 1064.39 150H928.813C905.168 150 886 169.187 886 192.857V307.143C886 330.812 905.168 350 928.813 350H1085.8C1101.56 350 1114.34 337.21 1114.34 321.429V200C1114.34 188.165 1104.75 178.571 1092.93 178.571ZM1100.07 321.429C1100.07 329.304 1093.66 335.714 1085.8 335.714H928.813C913.075 335.714 900.271 322.897 900.271 307.143V192.857C900.271 177.103 913.075 164.286 928.813 164.286H1064.39C1068.32 164.286 1071.52 167.491 1071.52 171.429V178.571H935.949C932.007 178.571 928.813 181.768 928.813 185.714C928.813 189.661 932.007 192.857 935.949 192.857H1092.93C1096.86 192.857 1100.07 196.062 1100.07 200V321.429Z" fill="white"/>
    </g>
    <defs>
        <clipPath id="clip0">
            <rect width="2000" height="500" rx="20" fill="white"/>
        </clipPath>
    </defs>
</svg>
