<svg width="3000" height="1500" viewBox="0 0 3000 1500" fill="none" xmlns="http://www.w3.org/2000/svg">
    <g clip-path="url(#clip0)">
        <rect width="3000" height="1500" rx="25" fill="#0088CC"/>
        <path d="M1671.25 750C1647.61 750 1628.44 769.192 1628.44 792.857C1628.44 816.522 1647.61 835.714 1671.25 835.714C1694.89 835.714 1714.07 816.522 1714.07 792.857C1714.07 769.192 1694.89 750 1671.25 750ZM1778.29 535.714H1756.88V514.286C1756.88 478.781 1728.13 450 1692.66 450H1285.93C1215 450 1157.49 507.563 1157.49 578.571V921.429C1157.49 992.438 1215 1050 1285.93 1050H1756.88C1804.18 1050 1842.51 1011.63 1842.51 964.286V600C1842.51 564.496 1813.76 535.714 1778.29 535.714ZM1799.69 964.286C1799.69 987.911 1780.48 1007.14 1756.88 1007.14H1285.93C1238.72 1007.14 1200.31 968.692 1200.31 921.429V578.571C1200.31 531.308 1238.72 492.857 1285.93 492.857H1692.66C1704.46 492.857 1714.07 502.473 1714.07 514.286V535.714H1307.34C1295.51 535.714 1285.93 545.304 1285.93 557.143C1285.93 568.982 1295.51 578.571 1307.34 578.571H1778.29C1790.09 578.571 1799.69 588.188 1799.69 600V964.286Z" fill="white"/>
    </g>
    <defs>
        <clipPath id="clip0">
            <rect width="3000" height="1500" rx="20" fill="white"/>
        </clipPath>
    </defs>
</svg>
