<svg width="2000" height="500" viewBox="0 0 2000 500" fill="none" xmlns="http://www.w3.org/2000/svg">
    <rect width="2000" height="500" rx="20" fill="#0088CC"/>
    <path d="M1016.71 162.822C1016.36 162.095 1015.99 161.347 1015.62 160.592C1014.42 158.153 1013.1 155.553 1011.89 153.419C1011.29 152.363 1010.65 151.298 1010.02 150.38C1009.71 149.923 1009.33 149.403 1008.9 148.899C1008.55 148.486 1007.8 147.657 1006.73 146.946L1006.7 146.925L1006.66 146.904C1003.95 145.154 1000.82 144.595 997.75 145.291C994.988 145.917 992.864 147.425 991.401 148.747C988.532 151.341 986.304 154.98 984.73 157.949C983.389 160.479 982.245 163.066 981.365 165.221C979.577 165.309 977.498 165.521 975.221 165.953C968.018 167.321 958.766 170.909 950.697 179.639L950.672 179.666L950.648 179.693C949.428 181.037 947.538 182.031 943.919 183.443C944.086 183.37 942.703 183.853 941.732 184.418C940.329 185.234 939.218 186.312 938.295 187.517C936.668 189.645 935.201 192.764 933.546 197.217C929.879 207.028 933.152 216.629 936.205 222.678C936.922 224.098 937.671 225.412 938.402 226.596C915.893 246.081 914.248 269.781 914.811 280.586C906.164 289.363 903.039 298.941 903 307.615C902.959 316.853 906.403 324.408 908.945 328.364L908.985 328.425L909.026 328.486C909.719 329.523 910.479 330.427 911.289 331.203C910.946 332.886 910.815 334.864 911.252 336.968C912.059 340.85 914.55 343.983 918.207 345.921L918.227 345.932L918.248 345.942C922.35 348.086 927.778 349.762 933.277 349.996C937.325 350.168 942.109 349.564 946.371 347.123C948.301 349.466 950.88 351.032 953.422 352.027C957.058 353.45 961.37 354.036 966.02 353.998L966.075 353.998L966.129 353.997C967.838 353.959 976.926 353.491 986.575 352.775C995.915 352.081 1007 351.078 1012.16 349.813C1015.74 348.965 1018.41 347.54 1020.32 346.109C1020.64 345.867 1020.94 345.627 1021.21 345.392C1039 340.233 1049.78 333.879 1058.91 328.202C1059.45 327.868 1059.98 327.538 1060.5 327.213C1069.02 321.9 1075.65 317.773 1086.16 315.254C1094.76 313.211 1098.74 305.29 1097.78 298.315C1097.29 294.767 1095.54 291.259 1092.42 288.703C1089.28 286.135 1085.29 284.941 1081 285.049C1067.29 285.16 1055.62 292.291 1047.55 297.292C1043.5 299.798 1040.07 301.531 1037.29 302.71C1037.33 302.376 1037.36 302.036 1037.38 301.69C1037.97 294.525 1037.79 284.732 1033.92 274.026C1029.85 262.716 1024.51 255.489 1020.17 250.833C1019.61 250.229 1019.06 249.667 1018.55 249.151C1023.27 242.317 1030.79 230.86 1034.11 214.109L1034.12 214.087L1034.12 214.066C1035.44 207.228 1035.87 198.547 1035.3 190.221C1034.73 182.046 1033.14 173.233 1029.77 166.619L1029.76 166.606L1029.75 166.592C1027.93 163.052 1024.6 162.116 1022.89 161.912C1021.24 161.713 1019.78 161.977 1018.95 162.164C1018.19 162.334 1017.43 162.567 1016.71 162.822ZM1029.6 305.002C1029.6 305.002 1029.61 305.002 1029.63 305.002C1029.61 305.003 1029.6 305.003 1029.6 305.002Z" stroke="white" stroke-width="16"/>
    <path d="M471.892 362C468.895 362 465.853 361.196 463.214 359.678L435.613 343.382C431.497 341.06 433.51 340.257 434.852 339.81C440.355 337.89 441.473 337.489 447.333 334.14C447.959 333.783 448.765 333.917 449.391 334.319L470.595 346.865C471.356 347.311 472.429 347.311 473.145 346.865L555.77 299.271C556.53 298.824 557.023 297.931 557.023 297.038V201.85C557.023 200.913 556.53 200.064 555.725 199.573L473.145 152.024C472.385 151.577 471.356 151.577 470.595 152.024L388.06 199.618C387.255 200.064 386.762 200.957 386.762 201.895V297.038C386.762 297.931 387.255 298.824 388.06 299.226L410.695 312.263C422.998 318.38 430.513 311.191 430.513 303.914V209.976C430.513 208.637 431.587 207.61 432.929 207.61H443.397C444.694 207.61 445.812 208.637 445.812 209.976V303.959C445.812 320.299 436.865 329.675 421.342 329.675C416.556 329.675 412.798 329.675 402.33 324.496L380.679 312.04C375.31 308.959 372 303.2 372 296.994V201.85C372 195.689 375.31 189.885 380.679 186.804L463.214 139.21C468.448 136.263 475.382 136.263 480.571 139.21L563.196 186.849C568.564 189.929 571.874 195.689 571.874 201.895V297.038C571.874 303.2 568.564 308.959 563.196 312.084L480.571 359.678C477.932 361.196 474.934 362 471.892 362ZM538.592 268.196C538.592 250.382 526.514 245.649 501.149 242.301C475.471 238.907 472.877 237.166 472.877 231.183C472.877 226.228 475.069 219.62 494.081 219.62C511.035 219.62 517.298 223.281 519.893 234.711C520.116 235.782 521.101 236.586 522.219 236.586H532.955C533.626 236.586 534.253 236.318 534.7 235.827C535.147 235.336 535.371 234.666 535.326 233.996C533.671 214.307 520.564 205.154 494.081 205.154C470.506 205.154 456.459 215.066 456.459 231.719C456.459 249.757 470.461 254.757 493.052 256.99C520.116 259.624 522.219 263.597 522.219 268.91C522.219 278.108 514.793 282.037 497.391 282.037C475.516 282.037 470.729 276.545 469.119 265.696C468.94 264.535 467.956 263.687 466.748 263.687H456.056C454.714 263.687 453.685 264.758 453.685 266.053C453.685 279.938 461.246 296.502 497.436 296.502C523.561 296.458 538.592 286.144 538.592 268.196V268.196Z" fill="white"/>
    <path d="M1470 141H1528.3M1586.6 141H1528.3M1528.3 231.687V141" stroke="white" stroke-width="16" stroke-linejoin="round"/>
    <path d="M1478 249.403H1578.6V299.702C1578.6 327.481 1556.08 350 1528.3 350C1500.52 350 1478 327.481 1478 299.702V249.403Z" stroke="white" stroke-width="16" stroke-linejoin="round"/>
</svg>
