<svg width="3000" height="1500" viewBox="0 0 3000 1500" fill="none" xmlns="http://www.w3.org/2000/svg">
    <rect width="3000" height="1500" rx="20" fill="#0088CC"/>
    <path fill-rule="evenodd" clip-rule="evenodd" d="M2375.67 492.667H2241.54V450H2552.46V492.667H2418.33V713.164H2375.67V492.667Z" fill="white"/>
    <path fill-rule="evenodd" clip-rule="evenodd" d="M2509.8 781.741H2284.2V894.537C2284.2 956.833 2334.7 1007.33 2397 1007.33C2459.3 1007.33 2509.8 956.833 2509.8 894.537V781.741ZM2552.46 739.075V894.537C2552.46 980.397 2482.86 1050 2397 1050C2311.14 1050 2241.54 980.397 2241.54 894.537V739.075H2552.46Z" fill="white"/>
    <path fill-rule="evenodd" clip-rule="evenodd" d="M1631.88 1025C1624.6 1030.38 1614.95 1035.34 1602.71 1038.24C1586.78 1042.13 1555.25 1044.88 1531.09 1046.67C1505.3 1048.59 1480.6 1049.87 1475.46 1049.99L1475.16 1049.99L1474.87 1049.99C1460.77 1050.11 1446.36 1048.37 1433.33 1043.27C1428.49 1041.38 1423.28 1038.77 1418.25 1035.27C1406.91 1038.89 1395.71 1039.69 1386.48 1039.3C1368.37 1038.53 1350.85 1033.1 1337.43 1026.09L1337.32 1026.03L1337.21 1025.97C1322.36 1018.11 1311.32 1004.71 1307.76 987.588C1306.83 983.099 1306.51 978.802 1306.59 974.79C1306.04 974.04 1305.5 973.272 1304.98 972.489L1304.76 972.164L1304.55 971.836C1296.17 958.793 1285.18 934.657 1285.31 904.879C1285.43 878.512 1294.33 850.357 1316.6 824.767C1316.52 791.879 1324.67 734.783 1374.44 684.586C1365.71 666.11 1356 635.553 1368.11 603.131C1372.63 590.982 1377.43 580.107 1383.82 571.751C1387.6 566.815 1392.57 561.871 1399.2 558.011C1403.27 555.639 1409.28 553.432 1409.03 553.575C1412.79 552.089 1415.04 551.086 1416.7 550.174C1417.5 549.731 1418.52 548.936 1418.69 548.813L1422.98 545.122C1448.24 517.791 1472.58 510.554 1495.26 506.251C1497.24 505.874 1499.18 505.549 1501.07 505.272C1502.51 502.202 1504.07 499.034 1505.74 495.873C1510.22 487.422 1517.57 474.996 1528.07 465.503C1533.48 460.616 1542.34 454.084 1554.59 451.304C1568.45 448.158 1582.69 450.76 1594.66 458.493L1594.83 458.605L1595 458.718C1600.37 462.258 1603.88 466.257 1605.26 467.877C1607.06 469.988 1608.54 472.031 1609.62 473.608C1611.8 476.781 1613.84 480.219 1615.57 483.273C1617.62 486.895 1619.75 490.903 1621.82 494.928C1624 494.871 1626.38 494.948 1628.9 495.25C1637.09 496.231 1654.21 500.889 1663.62 519.143L1663.65 519.214L1663.69 519.285C1674.62 540.7 1679.15 567.565 1680.72 590.461C1682.35 614.161 1681.17 639.194 1677.24 659.547L1677.22 659.663L1677.2 659.78C1669.66 697.731 1654.21 727.281 1641.78 747.068C1653.34 761.081 1665.94 780.681 1675.83 808.166C1681.99 825.176 1685.03 841.375 1686.28 855.97C1707.72 842.811 1741.23 823.844 1780.97 823.467C1796.66 823.11 1812.45 827.523 1825.28 838.04C1838.06 848.514 1845.22 862.875 1847.2 877.259C1851.08 905.384 1834.91 937.798 1800.03 946.095C1775.43 951.99 1760.44 961.323 1737.36 975.692C1736.16 976.445 1734.92 977.211 1733.67 977.991C1709.19 993.204 1679.57 1010.69 1631.88 1025ZM1790.13 904.591C1812.05 899.394 1810.5 865.263 1781.68 866.129C1781.46 866.131 1781.24 866.133 1781.01 866.136C1780.99 866.136 1780.96 866.137 1780.93 866.137C1778.02 866.179 1775.14 866.367 1772.3 866.684C1768.2 867.141 1764.18 867.867 1760.22 868.814C1739.06 873.882 1719.98 885.273 1703.34 895.582C1696.56 899.777 1690.29 903.278 1684.55 906.187C1683.59 906.674 1682.64 907.145 1681.71 907.6C1656.03 920.116 1641.63 920.387 1640.53 918.451C1639.72 917.219 1640.34 913.199 1641.3 906.993C1642.43 899.628 1644.03 889.185 1644.3 876.672C1644.3 876.595 1644.3 871.517 1644.3 871.44C1644.61 856.007 1642.87 842.448 1635.69 822.643C1621.95 784.431 1602.56 766.607 1593.15 757.957C1589.2 754.332 1587.01 752.318 1587.72 751.09C1589.91 747.403 1592.76 743.273 1595.99 738.582C1608.56 720.349 1626.98 693.637 1635.35 651.47C1641.56 619.246 1639.84 566.404 1625.69 538.683C1625.05 537.439 1623.12 537.343 1620.6 537.901C1612.91 539.599 1599.63 547.346 1599.63 547.346C1599.63 547.346 1589.41 524.651 1580.97 508.887C1577 501.481 1573.43 495.605 1571.5 494.331C1560.03 486.921 1548.05 505.669 1539.97 522.814C1539.95 522.851 1539.94 522.888 1539.92 522.925C1534.05 535.403 1530.26 547 1530.26 547C1530.26 547 1489.36 536.372 1453.81 574.834C1446.74 582.63 1436.82 588.124 1426.99 591.935C1426.81 592.001 1422.58 594.077 1422.4 594.139C1419.71 595.061 1416.18 596.277 1408.09 618.033C1400.43 638.518 1409.01 660.329 1417.65 675.122C1423.98 685.976 1430.35 693.051 1430.35 693.051C1417.62 702.074 1407.11 711.637 1398.46 721.399C1354.12 771.435 1358.41 826.713 1360.29 841.354C1322.27 874.326 1324.91 910.692 1332.86 933.018C1335.23 939.668 1338.07 945.073 1340.45 948.77C1348.56 960.898 1358.57 955.008 1358.57 955.008C1358.57 955.008 1338.55 978.396 1357.19 988.272C1362.13 990.857 1368.1 993.131 1374.45 994.668C1380.49 996.13 1386.87 996.926 1393.05 996.688C1402.56 996.321 1411.58 993.501 1418.1 986.886C1418.86 986.134 1419.58 985.319 1420.26 984.45C1421.15 983.313 1421.97 982.083 1422.74 980.781C1427.33 972.959 1429.83 962.514 1431.93 953.745C1433.15 948.635 1434.24 944.095 1435.53 940.974C1436.07 939.748 1436.64 940.317 1437.98 941.986C1438.01 942.024 1438.04 942.062 1438.07 942.102C1438.16 942.203 1438.24 942.308 1438.33 942.417C1440.48 945.111 1444.41 950.031 1452.44 955.008C1452.44 955.008 1432.48 963.614 1433.98 982.929C1434.02 983.449 1434.08 983.976 1434.15 984.511C1434.51 987.185 1435.28 990.054 1436.56 993.123C1439.08 999.139 1446.09 1003.73 1457.31 1005.92C1462.24 1006.89 1467.99 1007.38 1474.53 1007.33C1482.46 1007.16 1569.6 1002.48 1592.73 996.761C1606.01 993.643 1610.67 986.713 1610.67 986.713C1661.69 972.619 1690.16 954.852 1715.76 938.88C1733.66 927.711 1750.15 917.42 1771.96 909.877C1773.94 909.193 1775.96 908.532 1778.03 907.895C1779.3 907.502 1780.6 907.117 1781.92 906.743C1782.24 906.65 1782.57 906.559 1782.89 906.467C1785.24 905.811 1787.65 905.185 1790.13 904.591ZM1539.27 521.898C1539.27 521.903 1539.28 521.909 1539.28 521.915C1539.25 521.871 1539.24 521.863 1539.27 521.898Z" fill="white"/>
    <path d="M713.917 1050C705.925 1050 697.813 1047.86 690.775 1043.81L617.171 1000.35C606.196 994.161 611.564 992.018 615.143 990.827C629.816 985.708 632.798 984.636 648.426 975.707C650.096 974.754 652.243 975.112 653.913 976.183L710.458 1009.64C712.486 1010.83 715.349 1010.83 717.258 1009.64L937.591 882.722C939.619 881.531 940.931 879.15 940.931 876.769V622.934C940.931 620.434 939.619 618.171 937.471 616.862L717.258 490.063C715.23 488.873 712.486 488.873 710.458 490.063L490.363 616.981C488.216 618.171 486.904 620.553 486.904 623.053V876.769C486.904 879.15 488.216 881.531 490.363 882.602L550.725 917.368C583.531 933.679 603.572 914.51 603.572 895.104V644.603C603.572 641.031 606.435 638.292 610.014 638.292H637.928C641.388 638.292 644.37 641.031 644.37 644.603V895.223C644.37 938.798 620.511 963.801 579.117 963.801C566.353 963.801 556.332 963.801 528.418 949.99L470.68 916.773C456.365 908.557 447.537 893.199 447.537 876.649V622.934C447.537 606.504 456.365 591.026 470.68 582.811L690.775 455.893C704.732 448.036 723.222 448.036 737.06 455.893L957.393 582.93C971.708 591.145 980.536 606.504 980.536 623.053V876.769C980.536 893.199 971.708 908.557 957.393 916.892L737.06 1043.81C730.022 1047.86 722.029 1050 713.917 1050ZM891.782 799.856C891.782 752.351 859.573 739.731 791.935 730.802C723.461 721.753 716.542 717.11 716.542 701.156C716.542 687.94 722.387 670.319 773.086 670.319C818.298 670.319 834.999 680.082 841.918 710.562C842.515 713.419 845.139 715.562 848.121 715.562H876.751C878.541 715.562 880.211 714.848 881.404 713.538C882.597 712.228 883.193 710.443 883.074 708.657C878.66 656.151 843.707 631.744 773.086 631.744C710.219 631.744 672.761 658.175 672.761 702.585C672.761 750.685 710.1 764.019 770.343 769.972C842.515 776.997 848.121 787.593 848.121 801.761C848.121 826.287 828.319 836.765 781.914 836.765C723.58 836.765 710.816 822.12 706.521 793.189C706.044 790.093 703.42 787.831 700.199 787.831H671.688C668.109 787.831 665.365 790.689 665.365 794.141C665.365 831.169 685.526 875.34 782.033 875.34C851.7 875.221 891.782 847.718 891.782 799.856Z" fill="white"/>
</svg>
